<?xml version="1.0" encoding="UTF-8"?><svg xmlns="http://www.w3.org/2000/svg" viewBox="0 0 598.45 545.68"><defs><style>.cls-1{fill:#fff2e7;}.cls-2,.cls-3{fill:#f27385;}.cls-3{opacity:.65;}</style></defs><g id="Layer_2"><path class="cls-3" d="m255.48,401c-15.26,2.46-19.08-35-45.8-40.3-34.45-6.84-59.68,49.16-90.09,40.98-19.71-5.3-33.88-35.47-27.97-56.73,5.81-20.87,27.83-21.77,65.59-59.96,16.13-16.32,31.47-31.83,28.3-42.55-3.85-13.03-30.46-3.55-65.52-18.02-23.96-9.89-57.23-33.18-54.29-58.64,2.14-18.55,22.68-31.17,24.17-32.06,39.21-23.41,79.9,20.08,107.73-3.57,7.41-6.29,13.56-17.05,13.56-27.24,0-14.61-12.69-18.47-22.79-36.53-10.03-17.93-16.03-47.19-5.2-59.3,10.51-11.76,37.45-7.97,54.97,4.79,46.95,34.22,26.58,133.31,41.71,134.61,14.97,1.29,28.14-96.2,64.32-102.59,15.22-2.69,32.44,11.11,37.37,27.56,13.35,44.53-62.58,111.14-57.02,117.65,6.99,8.19,109.48-117.66,200.21-103.27,6.7,1.06,47.24,7.49,53.56,34.28,3.7,15.67-5.32,30.88-11.36,40.39-18.89,29.76-40.64,28.23-72.31,63.28-12.7,14.06-22.33,25.01-20.09,37.3,2.59,14.2,18.21,14.72,34.43,34.43,2.92,3.55,28.29,35.16,17.22,60.26-7.34,16.64-28.5,25.41-45.91,25.82-40.62.98-62.66-43.41-74.6-37.3-21.42,10.96,52.33,152.39,8.01,191.59-9.14,8.08-23.62,11.45-36.28,8.99-59.4-11.57-56.96-261.45-76.31-260.25-12.9.8-19.66,112.18-45.63,116.37Z"/><path class="cls-2" d="m323.98,242.46c33.34,21.03,88.52-32.58,105.83-16.18,9.14,8.67-4.85,24.98,0,67.04,3.23,28.04,10.49,29.78,9.01,46.24-2.74,30.49-31.33,65.54-67.55,69.35-33.39,3.52-58.42-21.08-67.55-30.05-13.4-13.17-10.89-17.76-33.78-50.86-25.14-36.36-32.85-37.59-33.78-50.86-2.22-31.92,39.28-69.49,63.05-62.42,13.27,3.95,10.35,18.65,24.77,27.74Z"/><circle class="cls-2" cx="577.25" cy="407.73" r="21.2"/><circle class="cls-2" cx="21.2" cy="109.22" r="21.2"/></g><g id="Layer_1"><path class="cls-1" d="m431.96,333.45c-12.6,2.26-21.89,2.79-29.91-2.1-1.53-.93-9.64-5.88-10.92-15.34-1.36-10.04,5.97-18.98,12.59-23.14,1.61-1.01,9.54-5.74,18.76-3.66,8.04,1.82,14,8.12,14.46,8.61.71.77,1.92,2.18,3.95,4.02,0,0,2.97,2.72,6.71,5.08,8.93,5.65,17.16,7.63,20.23,8.28,7.96,1.68,14.83,1.46,19.39,1-22.96,10.21-42.17,14.9-55.25,17.25Z"/><path class="cls-1" d="m354.37,256.47c-6.49,10.28-12.98,20.56-19.47,30.85,13.29,4.76,26.57,9.53,39.86,14.29,3.65-7.54,7.3-15.08,10.96-22.62-10.45-7.5-20.9-15.01-31.35-22.51Z"/><path class="cls-1" d="m323.81,285.12c8.04-12.15,16.07-24.3,24.11-36.45-8.01-8.03-19.37-18.82-33.79-30.65-15.36-12.6-28.54-21.73-33.82-25.22-35.4-23.37-97.41-44.88-105.59-32.14-9,14.01,45.36,72.24,108.11,106.12,15.99,8.63,30.26,14.46,40.98,18.33Z"/></g></svg>